<?xml version="1.0" encoding="iso-8859-1"?>
<!-- Uploaded to: SVG Repo, www.svgrepo.com, Generator: SVG Repo Mixer Tools -->
<svg height="800px" width="800px" version="1.1" id="Layer_1" xmlns="http://www.w3.org/2000/svg" xmlns:xlink="http://www.w3.org/1999/xlink" 
	 viewBox="0 0 512 512" xml:space="preserve">
<path style="fill:#D35B38;" d="M469.985,251.894H42.015c-17.571,0-31.815-14.244-31.815-31.815v-83.131
	c0-17.571,14.244-31.815,31.815-31.815h427.971c17.571,0,31.815,14.244,31.815,31.815v83.131
	C501.801,237.65,487.557,251.894,469.985,251.894z"/>
<circle style="fill:#CCCCCC;" cx="345.243" cy="251.328" r="81.104"/>
<path style="fill:#FFAD61;" d="M471.641,401.868l-57.905-57.905l24.135-24.135l57.905,57.905c6.665,6.665,6.665,17.47,0,24.135l0,0
	C489.111,408.533,478.305,408.533,471.641,401.868z"/>
<g>
	<path style="fill:#4D3D36;" d="M435.909,262.094h34.077c23.167,0,42.015-18.847,42.015-42.014v-83.132
		c0-23.167-18.847-42.015-42.015-42.015H42.015C18.847,94.933,0,113.781,0,136.947v83.132c0,23.166,18.847,42.014,42.015,42.014
		h212.553c5.343,45.294,43.964,80.545,90.669,80.545c21.507,0,41.298-7.479,56.918-19.966l9.223,9.223l-4.856,4.856
		c-3.983,3.983-3.983,10.441,0,14.425l57.905,57.905c5.151,5.15,11.997,7.986,19.28,7.986c7.284,0,14.13-2.836,19.28-7.986
		c10.63-10.631,10.631-27.927,0-38.56l-57.903-57.905c-3.984-3.982-10.44-3.982-14.425,0l-4.856,4.856l-9.223-9.223
		C426.953,295.273,433.865,279.418,435.909,262.094z M488.563,384.944c2.677,2.678,2.677,7.034,0,9.713
		c-1.296,1.296-3.021,2.011-4.856,2.011c-1.834,0-3.559-0.714-4.856-2.012l-50.693-50.693l9.711-9.711L488.563,384.944z
		 M20.398,220.079v-83.132c0-11.92,9.697-21.616,21.616-21.616h427.97c11.92,0,21.616,9.697,21.616,21.616v83.132
		c0,11.92-9.697,21.615-21.616,21.615h-33.947c-4.829-45.834-43.707-81.671-90.799-81.671s-85.969,35.837-90.798,81.671H42.015
		C30.096,241.695,20.398,231.999,20.398,220.079z M274.33,251.33c0-39.099,31.809-70.908,70.908-70.908
		c39.1,0,70.909,31.809,70.909,70.908c0,39.1-31.809,70.909-70.909,70.909C306.139,322.239,274.33,290.43,274.33,251.33z"/>
	<path style="fill:#4D3D36;" d="M180.567,168.827H60.488c-5.633,0-10.199,4.567-10.199,10.199s4.566,10.199,10.199,10.199h120.078
		c5.633,0,10.199-4.567,10.199-10.199S186.199,168.827,180.567,168.827z"/>
	<path style="fill:#4D3D36;" d="M226.75,168.827h-7.183c-5.633,0-10.199,4.567-10.199,10.199s4.566,10.199,10.199,10.199h7.183
		c5.633,0,10.199-4.567,10.199-10.199S232.383,168.827,226.75,168.827z"/>
</g>
</svg>